{
	"asset":{
		"generator":"Khronos glTF Blender I/O v4.1.63",
		"version":"2.0"
	},
	"scene":0,
	"scenes":[
		{
			"name":"Scene",
			"nodes":[
				0,
				1,
				2
			]
		}
	],
	"nodes":[
		{
			"mesh":0,
			"name":"Cube",
			"scale":[
				1.8211182355880737,
				2.1518874168395996,
				1.8211182355880737
			]
		},
		{
			"mesh":1,
			"name":"Cube.001",
			"scale":[
				1.8211182355880737,
				1.8211182355880737,
				1.8211182355880737
			]
		},
		{
			"mesh":2,
			"name":"Cube.002",
			"scale":[
				2.368375062942505,
				1,
				2.654609203338623
			]
		}
	],
	"meshes":[
		{
			"name":"Cube.002",
			"primitives":[
				{
					"attributes":{
						"POSITION":0,
						"NORMAL":1,
						"TEXCOORD_0":2
					},
					"indices":3
				}
			]
		},
		{
			"name":"Cube.003",
			"primitives":[
				{
					"attributes":{
						"POSITION":4,
						"NORMAL":5,
						"TEXCOORD_0":6
					},
					"indices":3
				}
			]
		},
		{
			"name":"Cube.004",
			"primitives":[
				{
					"attributes":{
						"POSITION":7,
						"NORMAL":8,
						"TEXCOORD_0":9
					},
					"indices":10
				}
			]
		}
	],
	"accessors":[
		{
			"bufferView":0,
			"componentType":5126,
			"count":128,
			"max":[
				1.025496244430542,
				1.1385514736175537,
				1.025496244430542
			],
			"min":[
				-1.025496244430542,
				-1.1385514736175537,
				-1.025496244430542
			],
			"type":"VEC3"
		},
		{
			"bufferView":1,
			"componentType":5126,
			"count":128,
			"type":"VEC3"
		},
		{
			"bufferView":2,
			"componentType":5126,
			"count":128,
			"type":"VEC2"
		},
		{
			"bufferView":3,
			"componentType":5123,
			"count":372,
			"type":"SCALAR"
		},
		{
			"bufferView":4,
			"componentType":5126,
			"count":128,
			"max":[
				1.1385514736175537,
				1.1385514736175537,
				1.1385514736175537
			],
			"min":[
				-1.1385514736175537,
				-1.1385514736175537,
				-1.1385514736175537
			],
			"type":"VEC3"
		},
		{
			"bufferView":5,
			"componentType":5126,
			"count":128,
			"type":"VEC3"
		},
		{
			"bufferView":6,
			"componentType":5126,
			"count":128,
			"type":"VEC2"
		},
		{
			"bufferView":7,
			"componentType":5126,
			"count":24,
			"max":[
				2.5345656871795654,
				1.7621045112609863,
				1
			],
			"min":[
				0.5345656871795654,
				-0.23789548873901367,
				-1
			],
			"type":"VEC3"
		},
		{
			"bufferView":8,
			"componentType":5126,
			"count":24,
			"type":"VEC3"
		},
		{
			"bufferView":9,
			"componentType":5126,
			"count":24,
			"type":"VEC2"
		},
		{
			"bufferView":10,
			"componentType":5123,
			"count":36,
			"type":"SCALAR"
		}
	],
	"bufferViews":[
		{
			"buffer":0,
			"byteLength":1536,
			"byteOffset":0,
			"target":34962
		},
		{
			"buffer":0,
			"byteLength":1536,
			"byteOffset":1536,
			"target":34962
		},
		{
			"buffer":0,
			"byteLength":1024,
			"byteOffset":3072,
			"target":34962
		},
		{
			"buffer":0,
			"byteLength":744,
			"byteOffset":4096,
			"target":34963
		},
		{
			"buffer":0,
			"byteLength":1536,
			"byteOffset":4840,
			"target":34962
		},
		{
			"buffer":0,
			"byteLength":1536,
			"byteOffset":6376,
			"target":34962
		},
		{
			"buffer":0,
			"byteLength":1024,
			"byteOffset":7912,
			"target":34962
		},
		{
			"buffer":0,
			"byteLength":288,
			"byteOffset":8936,
			"target":34962
		},
		{
			"buffer":0,
			"byteLength":288,
			"byteOffset":9224,
			"target":34962
		},
		{
			"buffer":0,
			"byteLength":192,
			"byteOffset":9512,
			"target":34962
		},
		{
			"buffer":0,
			"byteLength":72,
			"byteOffset":9704,
			"target":34963
		}
	],
	"buffers":[
		{
			"byteLength":9776,
			"uri":"test.bin"
		}
	]
}
